# xmcd
#
# Track frame offsets: 
#        150
#        13485
#        26723
#        39522
#        55221
#        69525
#        83244
#        95999
#        109237
#        122575
#        136364
#        151182
#        165779
#        179383
#        193221
#        206524
#        221167
#        234078
#        248706
#        262045
#
# Disc length: 3675 seconds
#
# Revision: 0
# Processed by: cddbd v1.5.2PL0 Copyright (c) Steve Scherf et al.
# Submitted via: ExactAudioCopy v1.3
#
DISCID=1e0e5914
DTITLE=Billy Eckstine - The Essential Recordings CD1
DYEAR=2016
DGENRE=Blues
TTITLE0=I Apologise
TTITLE1=Prisoner Of Love
TTITLE2=A Cottage For Sale
TTITLE3=Jelly Jelly
TTITLE4=Stormy Monday Blues
TTITLE5=Last Night (And Now Tonight Again)
TTITLE6=Lonesome Lover Blues
TTITLE7=Sophisticated Lady
TTITLE8=I'm In The Mood For Love
TTITLE9=You Call It Madness (But I Call It Love)
TTITLE10=Everything I Have Is Yours
TTITLE11=Blue Moon
TTITLE12=Fools Rush In (Where Angels Fear To Tread)
TTITLE13=Intrigue
TTITLE14=Temptation
TTITLE15=Bewildered
TTITLE16=Caravan
TTITLE17=Somehow
TTITLE18=Body And Soul
TTITLE19=Be My Love
EXTD=
EXTT0=
EXTT1=
EXTT2=
EXTT3=
EXTT4=
EXTT5=
EXTT6=
EXTT7=
EXTT8=
EXTT9=
EXTT10=
EXTT11=
EXTT12=
EXTT13=
EXTT14=
EXTT15=
EXTT16=
EXTT17=
EXTT18=
EXTT19=
PLAYORDER=
